<?xml version="1.0" encoding="utf-8"?>
<!-- Generator: Adobe Illustrator 16.0.0, SVG Export Plug-In . SVG Version: 6.00 Build 0)  -->
<!DOCTYPE svg PUBLIC "-//W3C//DTD SVG 1.1//EN" "http://www.w3.org/Graphics/SVG/1.1/DTD/svg11.dtd">
<svg version="1.1" id="Layer_1" xmlns="http://www.w3.org/2000/svg" xmlns:xlink="http://www.w3.org/1999/xlink" x="0px" y="0px"
	 width="250.75px" height="150.25px" viewBox="0 0 250.75 150.25" enable-background="new 0 0 250.75 150.25" xml:space="preserve">
<g>
	<path fill="#FFFFFF" d="M219.384,43.35c1.453-1.497,4.216-4.065,6.858-6.242c1.649-1.365,9.54,0.305,7.795,2.545
		c-2.096,2.704-8.744,6.308-11.141,7.64C220.54,48.592,216.221,46.609,219.384,43.35"/>
	<path fill="#FFFFFF" d="M249.015,66.464c-7.033-1.264-9.903-4.774-10.433-7.793c-1.207-6.978,1.349-10.309-0.851-10.276
		c-2.2,0.033-5.886,1.465-6.134,3.526c-1.148,9.812-5.387,15.574-11.576,15.548c-6.741-0.032-7.885-8.887-6.557-14.579
		c0.944-4.031-2.656-3.108-5.659-1.834c-1.099,0.465-1.905,1.127-2.293,2.781c-0.798,3.408-1.875,8.697-6.651,11.651
		c-4.584,2.829-10.184,2.056-10.357-9.051c-0.201-12.637-12.898-6.935-17.007-5.635c-4.1,1.303-6.242,0.686-6.133,4.67
		c0.272,10.011-7.241,13.122-13.133,13.434c-8.317,0.442-12.411-5.57-12.411-7.931c7.436,0.205,12.006-0.489,15.226-3.422
		c4.237-3.882,2.811-12.433-7.366-13.23c-10.175-0.804-15.705,6.543-16.198,10.886c-3.513-0.083-4.304-0.093-8.038-0.199
		c-0.895-14.998-5.096-31.145-12.989-41.024C102.513,4.468,84.434,1.107,65.767,0.995c-11.288,0-24.665,1.237-34.185,3.865
		c-9.526,2.699-17.119,6.46-22.474,14.61c-9.194,13.988-8.903,30.664-7.632,51.971c1.628,26.458,7.9,52.814,15.659,76.999
		c0.796,2.461,3.485,0.804,5.493-0.531c2.01-1.334,3.382-2.061,2.674-3.873C16.438,121.271,9.35,88.183,8.26,71.402
		c-1.032-16.043-0.926-39.547,7.237-49.346C26.851,8.419,54.291,6.997,65.159,7.005c17.989-0.121,31.711,3.193,38.739,10.197
		c7.65,7.624,11.885,23.467,12.792,37.573c-1.569-0.054-4.287-0.084-5.89-0.143c-0.335-4.04-1.584-10.243-3.72-14.567
		c-3.627-7.215-8.802-12.042-16.837-14.986c-7.604-2.777-17.939-3.923-29.437-3.932c-13.431,0.026-27.923,3.992-35.841,14.131
		c-5.07,6.628-7.021,14.431-7.053,25.188c0.012,10.15,1.385,21.895,5.339,30.94c3.939,9.011,10.093,18.171,18.074,21.807
		c4.706,2.131,11.538,3.1,16.713,2.843c16.741-0.823,49.079-9.217,57.779-22.029c9.305-13.718,7.838-33.207,7.831-33.479
		c3.678,0.101,5.737,0.034,7.958,0.034c0.368,4.982,5.23,14.198,18.747,14.198c13.525,0,17.845-11.308,18.533-14.417
		c0.593-2.693,3.804-4.341,8.052-4.843c5.349-0.631,0.959,4.849,8.039,13.181c6.447,7.585,14.251,2.007,15.688,0.85
		c2.982-2.374,5.934-7.775,6.44-10.246c0.124,7.819,3.858,12.582,11.896,13.394c8.185,0.825,13.803-5.431,15.543-8.476
		c4.797,7.881,10.876,9.77,12.52,9.131C248.725,72.712,252.064,67.012,249.015,66.464 M72.861,88.665
		C68.417,88.89,61,89.134,55.979,86.886c-7.768-3.471-10.882-13.012-10.865-21.755c0.023-9.88,5.979-22.234,23.288-22.247
		c16.026-0.005,20.259,9.254,20.991,10.995c-2.405-0.265-14.061-1.396-20.172-0.891c-4.646,0.391-12.451,2.169-12.451,11.646
		c0,9.465,8.682,18.951,26.79,14.966c4.395-0.964,13.691-4.147,13.385-20.083c3.339,0.169,5.141,0.157,8.816,0.306
		C107.998,80.592,91.867,87.692,72.861,88.665 M90.463,59.417c1.076,6.413-2.811,15.272-15.122,13.764
		c-13.322-1.637-10.196-13.379-2.004-13.883C80.405,58.868,88.136,59.322,90.463,59.417 M104.725,95.16
		c-7.695,5.371-22.261,10.209-36.527,12.682c-8.98,1.546-19.254,1.268-25.805-3.013c-15.01-9.814-16.816-35.532-16.807-45.007
		c-0.015-10.06,2.187-30.142,32.796-31.933c32.615-1.912,43.711,9.905,46.662,27.008l-9.266-0.537
		c-1.005-3.018-3.131-6.359-5.075-8.698C86.34,40.656,78.992,37.34,69.23,37.3c-28.489-0.129-31.513,19.721-30.876,29.449
		c0.653,10.103,3.837,22.953,14.336,27.145c4.301,1.716,11.567,2.214,16.416,2.092c15.682-0.533,29.664-5.734,37.517-15.001
		c3.21-3.795,4.979-12.116,4.991-17.883c0-1.36,0.125-1.841-0.012-3.259c1.405,0.051,5.119,0.185,5.119,0.185
		C116.76,72.16,115.448,87.65,104.725,95.16 M146.211,48.461c6.391-1.473,9.041,6.106,0.049,6.76
		c-3.752,0.274-6.701,0.101-6.701,0.101C140.493,51.848,142.905,49.225,146.211,48.461"/>
</g>
</svg>
